<?xml version="1.0" standalone="no"?>
<!DOCTYPE svg PUBLIC "-//W3C//DTD SVG 20010904//EN"
 "http://www.w3.org/TR/2001/REC-SVG-20010904/DTD/svg10.dtd">
<svg version="1.0" xmlns="http://www.w3.org/2000/svg"
 width="80.000000pt" height="80.000000pt" viewBox="0 0 80.000000 80.000000"
 preserveAspectRatio="xMidYMid meet">
<metadata>
Created by potrace 1.11, written by Peter Selinger 2001-2013
</metadata>
<g transform="translate(0.000000,80.000000) scale(0.100000,-0.100000)"
fill="#000000" stroke="none">
<path d="M40 660 c-19 -19 -20 -33 -20 -300 l0 -280 50 0 c49 0 50 1 50 30 l0
30 280 0 280 0 0 -30 c0 -29 1 -30 50 -30 l50 0 0 280 c0 267 -1 281 -20 300
-19 19 -33 20 -360 20 -327 0 -341 -1 -360 -20z"/>
</g>
</svg>
